<mxfile host="app.diagrams.net" modified="2024-03-30T13:43:26.157Z" agent="Mozilla/5.0 (Windows NT 10.0; Win64; x64) AppleWebKit/537.36 (KHTML, like Gecko) Chrome/123.0.0.0 Safari/537.36" etag="2pFMMnYvIomMXZ4bAh32" version="24.2.1" type="device">
  <diagram name="ページ1" id="_p8y2ZMvJbF9bzFV4q6h">
    <mxGraphModel dx="819" dy="426" grid="1" gridSize="10" guides="1" tooltips="1" connect="1" arrows="1" fold="1" page="1" pageScale="1" pageWidth="827" pageHeight="1169" math="0" shadow="0">
      <root>
        <mxCell id="0" />
        <mxCell id="1" parent="0" />
        <mxCell id="p1uvAuJWru4tgl7bkKN8-23" value="" style="rounded=0;whiteSpace=wrap;html=1;fillColor=#dae8fc;strokeColor=none;" parent="1" vertex="1">
          <mxGeometry width="560" height="150" as="geometry" />
        </mxCell>
        <mxCell id="p1uvAuJWru4tgl7bkKN8-22" value="" style="rounded=0;whiteSpace=wrap;html=1;fillColor=#d5e8d4;strokeColor=none;" parent="1" vertex="1">
          <mxGeometry y="150" width="560" height="60" as="geometry" />
        </mxCell>
        <mxCell id="p1uvAuJWru4tgl7bkKN8-10" style="edgeStyle=orthogonalEdgeStyle;rounded=0;orthogonalLoop=1;jettySize=auto;html=1;entryX=0;entryY=0.5;entryDx=0;entryDy=0;" parent="1" source="p1uvAuJWru4tgl7bkKN8-1" target="p1uvAuJWru4tgl7bkKN8-6" edge="1">
          <mxGeometry relative="1" as="geometry" />
        </mxCell>
        <mxCell id="p1uvAuJWru4tgl7bkKN8-15" style="edgeStyle=orthogonalEdgeStyle;rounded=1;orthogonalLoop=1;jettySize=auto;html=1;entryX=0;entryY=0.5;entryDx=0;entryDy=0;curved=0;" parent="1" source="p1uvAuJWru4tgl7bkKN8-1" target="p1uvAuJWru4tgl7bkKN8-3" edge="1">
          <mxGeometry relative="1" as="geometry" />
        </mxCell>
        <mxCell id="Q-xTxNDlCBi8yUghtBU0-2" style="edgeStyle=orthogonalEdgeStyle;rounded=1;orthogonalLoop=1;jettySize=auto;html=1;entryX=0;entryY=0.5;entryDx=0;entryDy=0;curved=0;" parent="1" source="p1uvAuJWru4tgl7bkKN8-1" target="p1uvAuJWru4tgl7bkKN8-9" edge="1">
          <mxGeometry relative="1" as="geometry" />
        </mxCell>
        <mxCell id="p1uvAuJWru4tgl7bkKN8-1" value="" style="ellipse;whiteSpace=wrap;html=1;aspect=fixed;" parent="1" vertex="1">
          <mxGeometry x="140" y="170" width="20" height="20" as="geometry" />
        </mxCell>
        <mxCell id="p1uvAuJWru4tgl7bkKN8-16" style="edgeStyle=orthogonalEdgeStyle;rounded=1;orthogonalLoop=1;jettySize=auto;html=1;entryX=0;entryY=0.5;entryDx=0;entryDy=0;curved=0;" parent="1" source="p1uvAuJWru4tgl7bkKN8-3" target="p1uvAuJWru4tgl7bkKN8-6" edge="1">
          <mxGeometry relative="1" as="geometry" />
        </mxCell>
        <mxCell id="p1uvAuJWru4tgl7bkKN8-3" value="" style="ellipse;whiteSpace=wrap;html=1;aspect=fixed;" parent="1" vertex="1">
          <mxGeometry x="200" y="110" width="20" height="20" as="geometry" />
        </mxCell>
        <mxCell id="Q-xTxNDlCBi8yUghtBU0-4" style="edgeStyle=orthogonalEdgeStyle;rounded=1;orthogonalLoop=1;jettySize=auto;html=1;entryX=0;entryY=0.5;entryDx=0;entryDy=0;curved=0;" parent="1" source="p1uvAuJWru4tgl7bkKN8-6" target="p1uvAuJWru4tgl7bkKN8-12" edge="1">
          <mxGeometry relative="1" as="geometry" />
        </mxCell>
        <mxCell id="Q-xTxNDlCBi8yUghtBU0-7" style="edgeStyle=orthogonalEdgeStyle;rounded=0;orthogonalLoop=1;jettySize=auto;html=1;entryX=0;entryY=0.5;entryDx=0;entryDy=0;" parent="1" source="p1uvAuJWru4tgl7bkKN8-6" target="Q-xTxNDlCBi8yUghtBU0-1" edge="1">
          <mxGeometry relative="1" as="geometry" />
        </mxCell>
        <mxCell id="Q-xTxNDlCBi8yUghtBU0-13" style="edgeStyle=orthogonalEdgeStyle;rounded=1;orthogonalLoop=1;jettySize=auto;html=1;entryX=0;entryY=0.5;entryDx=0;entryDy=0;curved=0;" parent="1" source="p1uvAuJWru4tgl7bkKN8-6" target="Q-xTxNDlCBi8yUghtBU0-11" edge="1">
          <mxGeometry relative="1" as="geometry" />
        </mxCell>
        <mxCell id="p1uvAuJWru4tgl7bkKN8-6" value="" style="ellipse;whiteSpace=wrap;html=1;aspect=fixed;" parent="1" vertex="1">
          <mxGeometry x="260" y="170" width="20" height="20" as="geometry" />
        </mxCell>
        <mxCell id="p1uvAuJWru4tgl7bkKN8-11" style="edgeStyle=orthogonalEdgeStyle;rounded=0;orthogonalLoop=1;jettySize=auto;html=1;" parent="1" source="p1uvAuJWru4tgl7bkKN8-7" target="p1uvAuJWru4tgl7bkKN8-8" edge="1">
          <mxGeometry relative="1" as="geometry" />
        </mxCell>
        <mxCell id="p1uvAuJWru4tgl7bkKN8-7" value="" style="ellipse;whiteSpace=wrap;html=1;aspect=fixed;" parent="1" vertex="1">
          <mxGeometry x="400" y="170" width="20" height="20" as="geometry" />
        </mxCell>
        <mxCell id="Q-xTxNDlCBi8yUghtBU0-17" style="edgeStyle=orthogonalEdgeStyle;rounded=0;orthogonalLoop=1;jettySize=auto;html=1;" parent="1" source="p1uvAuJWru4tgl7bkKN8-8" target="Q-xTxNDlCBi8yUghtBU0-15" edge="1">
          <mxGeometry relative="1" as="geometry" />
        </mxCell>
        <mxCell id="p1uvAuJWru4tgl7bkKN8-8" value="" style="ellipse;whiteSpace=wrap;html=1;aspect=fixed;" parent="1" vertex="1">
          <mxGeometry x="470" y="170" width="20" height="20" as="geometry" />
        </mxCell>
        <mxCell id="Q-xTxNDlCBi8yUghtBU0-5" style="edgeStyle=orthogonalEdgeStyle;rounded=1;orthogonalLoop=1;jettySize=auto;html=1;entryX=0;entryY=0.5;entryDx=0;entryDy=0;curved=0;" parent="1" source="p1uvAuJWru4tgl7bkKN8-9" target="Q-xTxNDlCBi8yUghtBU0-1" edge="1">
          <mxGeometry relative="1" as="geometry">
            <Array as="points">
              <mxPoint x="290" y="70" />
              <mxPoint x="290" y="180" />
            </Array>
          </mxGeometry>
        </mxCell>
        <mxCell id="p1uvAuJWru4tgl7bkKN8-9" value="" style="ellipse;whiteSpace=wrap;html=1;aspect=fixed;" parent="1" vertex="1">
          <mxGeometry x="220" y="60" width="20" height="20" as="geometry" />
        </mxCell>
        <mxCell id="Q-xTxNDlCBi8yUghtBU0-8" style="edgeStyle=orthogonalEdgeStyle;rounded=1;orthogonalLoop=1;jettySize=auto;html=1;entryX=0;entryY=0.5;entryDx=0;entryDy=0;curved=0;" parent="1" source="p1uvAuJWru4tgl7bkKN8-12" target="p1uvAuJWru4tgl7bkKN8-7" edge="1">
          <mxGeometry relative="1" as="geometry" />
        </mxCell>
        <mxCell id="p1uvAuJWru4tgl7bkKN8-12" value="" style="ellipse;whiteSpace=wrap;html=1;aspect=fixed;" parent="1" vertex="1">
          <mxGeometry x="320" y="20" width="20" height="20" as="geometry" />
        </mxCell>
        <mxCell id="Q-xTxNDlCBi8yUghtBU0-14" style="edgeStyle=orthogonalEdgeStyle;rounded=1;orthogonalLoop=1;jettySize=auto;html=1;entryX=0;entryY=0.5;entryDx=0;entryDy=0;curved=0;" parent="1" source="p1uvAuJWru4tgl7bkKN8-13" target="p1uvAuJWru4tgl7bkKN8-8" edge="1">
          <mxGeometry relative="1" as="geometry" />
        </mxCell>
        <mxCell id="p1uvAuJWru4tgl7bkKN8-13" value="" style="ellipse;whiteSpace=wrap;html=1;aspect=fixed;" parent="1" vertex="1">
          <mxGeometry x="410" y="110" width="20" height="20" as="geometry" />
        </mxCell>
        <mxCell id="p1uvAuJWru4tgl7bkKN8-86" value="" style="group" parent="1" vertex="1" connectable="0">
          <mxGeometry x="10" y="60" width="120" height="45" as="geometry" />
        </mxCell>
        <mxCell id="p1uvAuJWru4tgl7bkKN8-4" value="開発用ブランチ" style="text;html=1;strokeColor=none;fillColor=none;align=center;verticalAlign=middle;whiteSpace=wrap;rounded=0;" parent="p1uvAuJWru4tgl7bkKN8-86" vertex="1">
          <mxGeometry x="9.5" width="101" height="20" as="geometry" />
        </mxCell>
        <mxCell id="p1uvAuJWru4tgl7bkKN8-85" value="&lt;div style=&quot;font-size: 10px;&quot;&gt;特定の開発者のみが&lt;span style=&quot;background-color: initial;&quot;&gt;見る&lt;/span&gt;&lt;/div&gt;" style="text;html=1;strokeColor=none;fillColor=none;align=center;verticalAlign=middle;whiteSpace=wrap;rounded=0;fontSize=10;fontStyle=1" parent="p1uvAuJWru4tgl7bkKN8-86" vertex="1">
          <mxGeometry y="20" width="120" height="25" as="geometry" />
        </mxCell>
        <mxCell id="p1uvAuJWru4tgl7bkKN8-88" value="" style="group" parent="1" vertex="1" connectable="0">
          <mxGeometry x="14.5" y="155" width="111" height="45" as="geometry" />
        </mxCell>
        <mxCell id="p1uvAuJWru4tgl7bkKN8-2" value="メインブランチ" style="text;html=1;strokeColor=none;fillColor=none;align=center;verticalAlign=middle;whiteSpace=wrap;rounded=0;" parent="p1uvAuJWru4tgl7bkKN8-88" vertex="1">
          <mxGeometry width="111" height="22.5" as="geometry" />
        </mxCell>
        <mxCell id="p1uvAuJWru4tgl7bkKN8-87" value="&lt;font style=&quot;font-size: 10px;&quot;&gt;&lt;b&gt;全開発者が見る&lt;/b&gt;&lt;/font&gt;" style="text;html=1;strokeColor=none;fillColor=none;align=center;verticalAlign=middle;whiteSpace=wrap;rounded=0;" parent="p1uvAuJWru4tgl7bkKN8-88" vertex="1">
          <mxGeometry y="22.5" width="111" height="22.5" as="geometry" />
        </mxCell>
        <mxCell id="Q-xTxNDlCBi8yUghtBU0-9" style="edgeStyle=orthogonalEdgeStyle;rounded=1;orthogonalLoop=1;jettySize=auto;html=1;entryX=0;entryY=0.5;entryDx=0;entryDy=0;curved=0;" parent="1" source="Q-xTxNDlCBi8yUghtBU0-1" target="p1uvAuJWru4tgl7bkKN8-13" edge="1">
          <mxGeometry relative="1" as="geometry">
            <Array as="points">
              <mxPoint x="380" y="180" />
              <mxPoint x="380" y="120" />
            </Array>
          </mxGeometry>
        </mxCell>
        <mxCell id="Q-xTxNDlCBi8yUghtBU0-10" style="edgeStyle=orthogonalEdgeStyle;rounded=0;orthogonalLoop=1;jettySize=auto;html=1;entryX=0;entryY=0.5;entryDx=0;entryDy=0;" parent="1" source="Q-xTxNDlCBi8yUghtBU0-1" target="p1uvAuJWru4tgl7bkKN8-7" edge="1">
          <mxGeometry relative="1" as="geometry" />
        </mxCell>
        <mxCell id="Q-xTxNDlCBi8yUghtBU0-1" value="" style="ellipse;whiteSpace=wrap;html=1;aspect=fixed;" parent="1" vertex="1">
          <mxGeometry x="320" y="170" width="20" height="20" as="geometry" />
        </mxCell>
        <mxCell id="Q-xTxNDlCBi8yUghtBU0-16" style="edgeStyle=orthogonalEdgeStyle;rounded=1;orthogonalLoop=1;jettySize=auto;html=1;entryX=0;entryY=0.5;entryDx=0;entryDy=0;curved=0;" parent="1" source="Q-xTxNDlCBi8yUghtBU0-11" target="Q-xTxNDlCBi8yUghtBU0-15" edge="1">
          <mxGeometry relative="1" as="geometry">
            <Array as="points">
              <mxPoint x="500" y="70" />
              <mxPoint x="500" y="180" />
            </Array>
          </mxGeometry>
        </mxCell>
        <mxCell id="Q-xTxNDlCBi8yUghtBU0-11" value="" style="ellipse;whiteSpace=wrap;html=1;aspect=fixed;" parent="1" vertex="1">
          <mxGeometry x="340" y="60" width="20" height="20" as="geometry" />
        </mxCell>
        <mxCell id="Q-xTxNDlCBi8yUghtBU0-15" value="" style="ellipse;whiteSpace=wrap;html=1;aspect=fixed;" parent="1" vertex="1">
          <mxGeometry x="520" y="170" width="20" height="20" as="geometry" />
        </mxCell>
        <mxCell id="rtJpqdKrXWml77eh1tYl-16" value="" style="rounded=0;whiteSpace=wrap;html=1;fillColor=#dae8fc;strokeColor=none;" vertex="1" parent="1">
          <mxGeometry y="320" width="560" height="150" as="geometry" />
        </mxCell>
        <mxCell id="rtJpqdKrXWml77eh1tYl-17" value="" style="rounded=0;whiteSpace=wrap;html=1;fillColor=#d5e8d4;strokeColor=none;" vertex="1" parent="1">
          <mxGeometry y="470" width="560" height="60" as="geometry" />
        </mxCell>
        <mxCell id="rtJpqdKrXWml77eh1tYl-18" style="edgeStyle=orthogonalEdgeStyle;rounded=0;orthogonalLoop=1;jettySize=auto;html=1;entryX=0;entryY=0.5;entryDx=0;entryDy=0;" edge="1" parent="1" source="rtJpqdKrXWml77eh1tYl-21" target="rtJpqdKrXWml77eh1tYl-27">
          <mxGeometry relative="1" as="geometry" />
        </mxCell>
        <mxCell id="rtJpqdKrXWml77eh1tYl-19" style="edgeStyle=orthogonalEdgeStyle;rounded=1;orthogonalLoop=1;jettySize=auto;html=1;entryX=0;entryY=0.5;entryDx=0;entryDy=0;curved=0;" edge="1" parent="1" source="rtJpqdKrXWml77eh1tYl-21" target="rtJpqdKrXWml77eh1tYl-23">
          <mxGeometry relative="1" as="geometry" />
        </mxCell>
        <mxCell id="rtJpqdKrXWml77eh1tYl-20" style="edgeStyle=orthogonalEdgeStyle;rounded=1;orthogonalLoop=1;jettySize=auto;html=1;entryX=0;entryY=0.5;entryDx=0;entryDy=0;curved=0;" edge="1" parent="1" source="rtJpqdKrXWml77eh1tYl-21" target="rtJpqdKrXWml77eh1tYl-33">
          <mxGeometry relative="1" as="geometry" />
        </mxCell>
        <mxCell id="rtJpqdKrXWml77eh1tYl-21" value="" style="ellipse;whiteSpace=wrap;html=1;aspect=fixed;" vertex="1" parent="1">
          <mxGeometry x="140" y="490" width="20" height="20" as="geometry" />
        </mxCell>
        <mxCell id="rtJpqdKrXWml77eh1tYl-22" style="edgeStyle=orthogonalEdgeStyle;rounded=1;orthogonalLoop=1;jettySize=auto;html=1;entryX=0;entryY=0.5;entryDx=0;entryDy=0;curved=0;" edge="1" parent="1" source="rtJpqdKrXWml77eh1tYl-23" target="rtJpqdKrXWml77eh1tYl-27">
          <mxGeometry relative="1" as="geometry" />
        </mxCell>
        <mxCell id="rtJpqdKrXWml77eh1tYl-23" value="" style="ellipse;whiteSpace=wrap;html=1;aspect=fixed;" vertex="1" parent="1">
          <mxGeometry x="200" y="430" width="20" height="20" as="geometry" />
        </mxCell>
        <mxCell id="rtJpqdKrXWml77eh1tYl-24" style="edgeStyle=orthogonalEdgeStyle;rounded=1;orthogonalLoop=1;jettySize=auto;html=1;entryX=0;entryY=0.5;entryDx=0;entryDy=0;curved=0;" edge="1" parent="1" source="rtJpqdKrXWml77eh1tYl-27" target="rtJpqdKrXWml77eh1tYl-35">
          <mxGeometry relative="1" as="geometry" />
        </mxCell>
        <mxCell id="rtJpqdKrXWml77eh1tYl-25" style="edgeStyle=orthogonalEdgeStyle;rounded=0;orthogonalLoop=1;jettySize=auto;html=1;entryX=0;entryY=0.5;entryDx=0;entryDy=0;" edge="1" parent="1" source="rtJpqdKrXWml77eh1tYl-27" target="rtJpqdKrXWml77eh1tYl-46">
          <mxGeometry relative="1" as="geometry" />
        </mxCell>
        <mxCell id="rtJpqdKrXWml77eh1tYl-26" style="edgeStyle=orthogonalEdgeStyle;rounded=1;orthogonalLoop=1;jettySize=auto;html=1;entryX=0;entryY=0.5;entryDx=0;entryDy=0;curved=0;" edge="1" parent="1" source="rtJpqdKrXWml77eh1tYl-27" target="rtJpqdKrXWml77eh1tYl-48">
          <mxGeometry relative="1" as="geometry" />
        </mxCell>
        <mxCell id="rtJpqdKrXWml77eh1tYl-27" value="" style="ellipse;whiteSpace=wrap;html=1;aspect=fixed;" vertex="1" parent="1">
          <mxGeometry x="260" y="490" width="20" height="20" as="geometry" />
        </mxCell>
        <mxCell id="rtJpqdKrXWml77eh1tYl-28" style="edgeStyle=orthogonalEdgeStyle;rounded=0;orthogonalLoop=1;jettySize=auto;html=1;" edge="1" parent="1" source="rtJpqdKrXWml77eh1tYl-29" target="rtJpqdKrXWml77eh1tYl-31">
          <mxGeometry relative="1" as="geometry" />
        </mxCell>
        <mxCell id="rtJpqdKrXWml77eh1tYl-29" value="" style="ellipse;whiteSpace=wrap;html=1;aspect=fixed;" vertex="1" parent="1">
          <mxGeometry x="400" y="490" width="20" height="20" as="geometry" />
        </mxCell>
        <mxCell id="rtJpqdKrXWml77eh1tYl-30" style="edgeStyle=orthogonalEdgeStyle;rounded=0;orthogonalLoop=1;jettySize=auto;html=1;" edge="1" parent="1" source="rtJpqdKrXWml77eh1tYl-31" target="rtJpqdKrXWml77eh1tYl-49">
          <mxGeometry relative="1" as="geometry" />
        </mxCell>
        <mxCell id="rtJpqdKrXWml77eh1tYl-31" value="" style="ellipse;whiteSpace=wrap;html=1;aspect=fixed;" vertex="1" parent="1">
          <mxGeometry x="470" y="490" width="20" height="20" as="geometry" />
        </mxCell>
        <mxCell id="rtJpqdKrXWml77eh1tYl-32" style="edgeStyle=orthogonalEdgeStyle;rounded=1;orthogonalLoop=1;jettySize=auto;html=1;entryX=0;entryY=0.5;entryDx=0;entryDy=0;curved=0;" edge="1" parent="1" source="rtJpqdKrXWml77eh1tYl-33" target="rtJpqdKrXWml77eh1tYl-46">
          <mxGeometry relative="1" as="geometry">
            <Array as="points">
              <mxPoint x="290" y="390" />
              <mxPoint x="290" y="500" />
            </Array>
          </mxGeometry>
        </mxCell>
        <mxCell id="rtJpqdKrXWml77eh1tYl-33" value="" style="ellipse;whiteSpace=wrap;html=1;aspect=fixed;" vertex="1" parent="1">
          <mxGeometry x="220" y="380" width="20" height="20" as="geometry" />
        </mxCell>
        <mxCell id="rtJpqdKrXWml77eh1tYl-34" style="edgeStyle=orthogonalEdgeStyle;rounded=1;orthogonalLoop=1;jettySize=auto;html=1;entryX=0;entryY=0.5;entryDx=0;entryDy=0;curved=0;" edge="1" parent="1" source="rtJpqdKrXWml77eh1tYl-35" target="rtJpqdKrXWml77eh1tYl-29">
          <mxGeometry relative="1" as="geometry" />
        </mxCell>
        <mxCell id="rtJpqdKrXWml77eh1tYl-35" value="" style="ellipse;whiteSpace=wrap;html=1;aspect=fixed;" vertex="1" parent="1">
          <mxGeometry x="320" y="340" width="20" height="20" as="geometry" />
        </mxCell>
        <mxCell id="rtJpqdKrXWml77eh1tYl-36" style="edgeStyle=orthogonalEdgeStyle;rounded=1;orthogonalLoop=1;jettySize=auto;html=1;entryX=0;entryY=0.5;entryDx=0;entryDy=0;curved=0;" edge="1" parent="1" source="rtJpqdKrXWml77eh1tYl-37" target="rtJpqdKrXWml77eh1tYl-31">
          <mxGeometry relative="1" as="geometry" />
        </mxCell>
        <mxCell id="rtJpqdKrXWml77eh1tYl-37" value="" style="ellipse;whiteSpace=wrap;html=1;aspect=fixed;" vertex="1" parent="1">
          <mxGeometry x="410" y="430" width="20" height="20" as="geometry" />
        </mxCell>
        <mxCell id="rtJpqdKrXWml77eh1tYl-44" style="edgeStyle=orthogonalEdgeStyle;rounded=1;orthogonalLoop=1;jettySize=auto;html=1;entryX=0;entryY=0.5;entryDx=0;entryDy=0;curved=0;" edge="1" parent="1" source="rtJpqdKrXWml77eh1tYl-46" target="rtJpqdKrXWml77eh1tYl-37">
          <mxGeometry relative="1" as="geometry">
            <Array as="points">
              <mxPoint x="380" y="500" />
              <mxPoint x="380" y="440" />
            </Array>
          </mxGeometry>
        </mxCell>
        <mxCell id="rtJpqdKrXWml77eh1tYl-45" style="edgeStyle=orthogonalEdgeStyle;rounded=0;orthogonalLoop=1;jettySize=auto;html=1;entryX=0;entryY=0.5;entryDx=0;entryDy=0;" edge="1" parent="1" source="rtJpqdKrXWml77eh1tYl-46" target="rtJpqdKrXWml77eh1tYl-29">
          <mxGeometry relative="1" as="geometry" />
        </mxCell>
        <mxCell id="rtJpqdKrXWml77eh1tYl-46" value="" style="ellipse;whiteSpace=wrap;html=1;aspect=fixed;" vertex="1" parent="1">
          <mxGeometry x="320" y="490" width="20" height="20" as="geometry" />
        </mxCell>
        <mxCell id="rtJpqdKrXWml77eh1tYl-47" style="edgeStyle=orthogonalEdgeStyle;rounded=1;orthogonalLoop=1;jettySize=auto;html=1;entryX=0;entryY=0.5;entryDx=0;entryDy=0;curved=0;" edge="1" parent="1" source="rtJpqdKrXWml77eh1tYl-48" target="rtJpqdKrXWml77eh1tYl-49">
          <mxGeometry relative="1" as="geometry">
            <Array as="points">
              <mxPoint x="500" y="390" />
              <mxPoint x="500" y="500" />
            </Array>
          </mxGeometry>
        </mxCell>
        <mxCell id="rtJpqdKrXWml77eh1tYl-48" value="" style="ellipse;whiteSpace=wrap;html=1;aspect=fixed;" vertex="1" parent="1">
          <mxGeometry x="340" y="380" width="20" height="20" as="geometry" />
        </mxCell>
        <mxCell id="rtJpqdKrXWml77eh1tYl-49" value="" style="ellipse;whiteSpace=wrap;html=1;aspect=fixed;" vertex="1" parent="1">
          <mxGeometry x="520" y="490" width="20" height="20" as="geometry" />
        </mxCell>
        <mxCell id="rtJpqdKrXWml77eh1tYl-39" value="開発用ブランチ" style="text;html=1;strokeColor=none;fillColor=none;align=center;verticalAlign=middle;whiteSpace=wrap;rounded=0;" vertex="1" parent="1">
          <mxGeometry x="19.5" y="390" width="101" height="20" as="geometry" />
        </mxCell>
        <mxCell id="rtJpqdKrXWml77eh1tYl-42" value="メインブランチ" style="text;html=1;strokeColor=none;fillColor=none;align=center;verticalAlign=middle;whiteSpace=wrap;rounded=0;" vertex="1" parent="1">
          <mxGeometry x="14.5" y="488.75" width="111" height="22.5" as="geometry" />
        </mxCell>
        <mxCell id="rtJpqdKrXWml77eh1tYl-50" value="" style="rounded=0;whiteSpace=wrap;html=1;fillColor=#d5e8d4;strokeColor=none;" vertex="1" parent="1">
          <mxGeometry y="590" width="560" height="60" as="geometry" />
        </mxCell>
        <mxCell id="rtJpqdKrXWml77eh1tYl-51" style="edgeStyle=orthogonalEdgeStyle;rounded=0;orthogonalLoop=1;jettySize=auto;html=1;entryX=0;entryY=0.5;entryDx=0;entryDy=0;" edge="1" parent="1" source="rtJpqdKrXWml77eh1tYl-52" target="rtJpqdKrXWml77eh1tYl-54">
          <mxGeometry relative="1" as="geometry" />
        </mxCell>
        <mxCell id="rtJpqdKrXWml77eh1tYl-52" value="" style="ellipse;whiteSpace=wrap;html=1;aspect=fixed;" vertex="1" parent="1">
          <mxGeometry x="140" y="610" width="20" height="20" as="geometry" />
        </mxCell>
        <mxCell id="rtJpqdKrXWml77eh1tYl-53" style="edgeStyle=orthogonalEdgeStyle;rounded=0;orthogonalLoop=1;jettySize=auto;html=1;entryX=0;entryY=0.5;entryDx=0;entryDy=0;" edge="1" parent="1" source="rtJpqdKrXWml77eh1tYl-54" target="rtJpqdKrXWml77eh1tYl-60">
          <mxGeometry relative="1" as="geometry" />
        </mxCell>
        <mxCell id="rtJpqdKrXWml77eh1tYl-54" value="" style="ellipse;whiteSpace=wrap;html=1;aspect=fixed;" vertex="1" parent="1">
          <mxGeometry x="260" y="610" width="20" height="20" as="geometry" />
        </mxCell>
        <mxCell id="rtJpqdKrXWml77eh1tYl-55" style="edgeStyle=orthogonalEdgeStyle;rounded=0;orthogonalLoop=1;jettySize=auto;html=1;" edge="1" parent="1" source="rtJpqdKrXWml77eh1tYl-56" target="rtJpqdKrXWml77eh1tYl-58">
          <mxGeometry relative="1" as="geometry" />
        </mxCell>
        <mxCell id="rtJpqdKrXWml77eh1tYl-56" value="" style="ellipse;whiteSpace=wrap;html=1;aspect=fixed;" vertex="1" parent="1">
          <mxGeometry x="400" y="610" width="20" height="20" as="geometry" />
        </mxCell>
        <mxCell id="rtJpqdKrXWml77eh1tYl-57" style="edgeStyle=orthogonalEdgeStyle;rounded=0;orthogonalLoop=1;jettySize=auto;html=1;" edge="1" parent="1" source="rtJpqdKrXWml77eh1tYl-58" target="rtJpqdKrXWml77eh1tYl-61">
          <mxGeometry relative="1" as="geometry" />
        </mxCell>
        <mxCell id="rtJpqdKrXWml77eh1tYl-58" value="" style="ellipse;whiteSpace=wrap;html=1;aspect=fixed;" vertex="1" parent="1">
          <mxGeometry x="470" y="610" width="20" height="20" as="geometry" />
        </mxCell>
        <mxCell id="rtJpqdKrXWml77eh1tYl-59" style="edgeStyle=orthogonalEdgeStyle;rounded=0;orthogonalLoop=1;jettySize=auto;html=1;entryX=0;entryY=0.5;entryDx=0;entryDy=0;" edge="1" parent="1" source="rtJpqdKrXWml77eh1tYl-60" target="rtJpqdKrXWml77eh1tYl-56">
          <mxGeometry relative="1" as="geometry" />
        </mxCell>
        <mxCell id="rtJpqdKrXWml77eh1tYl-60" value="" style="ellipse;whiteSpace=wrap;html=1;aspect=fixed;" vertex="1" parent="1">
          <mxGeometry x="320" y="610" width="20" height="20" as="geometry" />
        </mxCell>
        <mxCell id="rtJpqdKrXWml77eh1tYl-61" value="" style="ellipse;whiteSpace=wrap;html=1;aspect=fixed;" vertex="1" parent="1">
          <mxGeometry x="520" y="610" width="20" height="20" as="geometry" />
        </mxCell>
        <mxCell id="rtJpqdKrXWml77eh1tYl-62" value="メインブランチ" style="text;html=1;strokeColor=none;fillColor=none;align=center;verticalAlign=middle;whiteSpace=wrap;rounded=0;" vertex="1" parent="1">
          <mxGeometry x="14.5" y="608.75" width="111" height="22.5" as="geometry" />
        </mxCell>
        <mxCell id="rtJpqdKrXWml77eh1tYl-63" value="" style="shape=flexArrow;endArrow=classic;html=1;rounded=0;" edge="1" parent="1" source="rtJpqdKrXWml77eh1tYl-17" target="rtJpqdKrXWml77eh1tYl-50">
          <mxGeometry width="50" height="50" relative="1" as="geometry">
            <mxPoint x="320" y="561.25" as="sourcePoint" />
            <mxPoint x="370" y="511.25" as="targetPoint" />
          </mxGeometry>
        </mxCell>
        <mxCell id="rtJpqdKrXWml77eh1tYl-64" value="以下のように表記" style="text;html=1;align=center;verticalAlign=middle;whiteSpace=wrap;rounded=0;" vertex="1" parent="1">
          <mxGeometry x="300" y="550" width="110" height="30" as="geometry" />
        </mxCell>
        <mxCell id="rtJpqdKrXWml77eh1tYl-65" value="" style="rounded=0;whiteSpace=wrap;html=1;fillColor=#fff2cc;strokeColor=none;" vertex="1" parent="1">
          <mxGeometry y="760" width="560" height="150" as="geometry" />
        </mxCell>
        <mxCell id="rtJpqdKrXWml77eh1tYl-66" value="" style="rounded=0;whiteSpace=wrap;html=1;fillColor=#d5e8d4;strokeColor=none;" vertex="1" parent="1">
          <mxGeometry y="910" width="560" height="60" as="geometry" />
        </mxCell>
        <mxCell id="rtJpqdKrXWml77eh1tYl-67" style="edgeStyle=orthogonalEdgeStyle;rounded=0;orthogonalLoop=1;jettySize=auto;html=1;entryX=0;entryY=0.5;entryDx=0;entryDy=0;" edge="1" parent="1" source="rtJpqdKrXWml77eh1tYl-70" target="rtJpqdKrXWml77eh1tYl-76">
          <mxGeometry relative="1" as="geometry" />
        </mxCell>
        <mxCell id="rtJpqdKrXWml77eh1tYl-69" style="edgeStyle=orthogonalEdgeStyle;rounded=1;orthogonalLoop=1;jettySize=auto;html=1;entryX=0;entryY=0.5;entryDx=0;entryDy=0;curved=0;" edge="1" parent="1" source="rtJpqdKrXWml77eh1tYl-70" target="rtJpqdKrXWml77eh1tYl-82">
          <mxGeometry relative="1" as="geometry" />
        </mxCell>
        <mxCell id="rtJpqdKrXWml77eh1tYl-70" value="" style="ellipse;whiteSpace=wrap;html=1;aspect=fixed;" vertex="1" parent="1">
          <mxGeometry x="140" y="930" width="20" height="20" as="geometry" />
        </mxCell>
        <mxCell id="rtJpqdKrXWml77eh1tYl-100" style="edgeStyle=orthogonalEdgeStyle;rounded=0;orthogonalLoop=1;jettySize=auto;html=1;" edge="1" parent="1" source="rtJpqdKrXWml77eh1tYl-72" target="rtJpqdKrXWml77eh1tYl-97">
          <mxGeometry relative="1" as="geometry" />
        </mxCell>
        <mxCell id="rtJpqdKrXWml77eh1tYl-72" value="" style="ellipse;whiteSpace=wrap;html=1;aspect=fixed;" vertex="1" parent="1">
          <mxGeometry x="300" y="820" width="20" height="20" as="geometry" />
        </mxCell>
        <mxCell id="rtJpqdKrXWml77eh1tYl-74" style="edgeStyle=orthogonalEdgeStyle;rounded=0;orthogonalLoop=1;jettySize=auto;html=1;entryX=0;entryY=0.5;entryDx=0;entryDy=0;" edge="1" parent="1" source="rtJpqdKrXWml77eh1tYl-76" target="rtJpqdKrXWml77eh1tYl-95">
          <mxGeometry relative="1" as="geometry" />
        </mxCell>
        <mxCell id="rtJpqdKrXWml77eh1tYl-76" value="" style="ellipse;whiteSpace=wrap;html=1;aspect=fixed;" vertex="1" parent="1">
          <mxGeometry x="260" y="930" width="20" height="20" as="geometry" />
        </mxCell>
        <mxCell id="rtJpqdKrXWml77eh1tYl-77" style="edgeStyle=orthogonalEdgeStyle;rounded=0;orthogonalLoop=1;jettySize=auto;html=1;" edge="1" parent="1" source="rtJpqdKrXWml77eh1tYl-78" target="rtJpqdKrXWml77eh1tYl-80">
          <mxGeometry relative="1" as="geometry" />
        </mxCell>
        <mxCell id="rtJpqdKrXWml77eh1tYl-78" value="" style="ellipse;whiteSpace=wrap;html=1;aspect=fixed;" vertex="1" parent="1">
          <mxGeometry x="400" y="930" width="20" height="20" as="geometry" />
        </mxCell>
        <mxCell id="rtJpqdKrXWml77eh1tYl-79" style="edgeStyle=orthogonalEdgeStyle;rounded=0;orthogonalLoop=1;jettySize=auto;html=1;" edge="1" parent="1" source="rtJpqdKrXWml77eh1tYl-80" target="rtJpqdKrXWml77eh1tYl-98">
          <mxGeometry relative="1" as="geometry" />
        </mxCell>
        <mxCell id="rtJpqdKrXWml77eh1tYl-80" value="" style="ellipse;whiteSpace=wrap;html=1;aspect=fixed;" vertex="1" parent="1">
          <mxGeometry x="450" y="930" width="20" height="20" as="geometry" />
        </mxCell>
        <mxCell id="rtJpqdKrXWml77eh1tYl-99" style="edgeStyle=orthogonalEdgeStyle;rounded=0;orthogonalLoop=1;jettySize=auto;html=1;entryX=0;entryY=0.5;entryDx=0;entryDy=0;" edge="1" parent="1" source="rtJpqdKrXWml77eh1tYl-82" target="rtJpqdKrXWml77eh1tYl-72">
          <mxGeometry relative="1" as="geometry" />
        </mxCell>
        <mxCell id="rtJpqdKrXWml77eh1tYl-82" value="" style="ellipse;whiteSpace=wrap;html=1;aspect=fixed;" vertex="1" parent="1">
          <mxGeometry x="220" y="820" width="20" height="20" as="geometry" />
        </mxCell>
        <mxCell id="rtJpqdKrXWml77eh1tYl-102" style="edgeStyle=orthogonalEdgeStyle;rounded=1;orthogonalLoop=1;jettySize=auto;html=1;entryX=0;entryY=0.5;entryDx=0;entryDy=0;curved=0;" edge="1" parent="1" source="rtJpqdKrXWml77eh1tYl-84" target="rtJpqdKrXWml77eh1tYl-98">
          <mxGeometry relative="1" as="geometry" />
        </mxCell>
        <mxCell id="rtJpqdKrXWml77eh1tYl-84" value="" style="ellipse;whiteSpace=wrap;html=1;aspect=fixed;" vertex="1" parent="1">
          <mxGeometry x="410" y="820" width="20" height="20" as="geometry" />
        </mxCell>
        <mxCell id="rtJpqdKrXWml77eh1tYl-94" style="edgeStyle=orthogonalEdgeStyle;rounded=0;orthogonalLoop=1;jettySize=auto;html=1;entryX=0;entryY=0.5;entryDx=0;entryDy=0;" edge="1" parent="1" source="rtJpqdKrXWml77eh1tYl-95" target="rtJpqdKrXWml77eh1tYl-78">
          <mxGeometry relative="1" as="geometry" />
        </mxCell>
        <mxCell id="rtJpqdKrXWml77eh1tYl-95" value="" style="ellipse;whiteSpace=wrap;html=1;aspect=fixed;" vertex="1" parent="1">
          <mxGeometry x="320" y="930" width="20" height="20" as="geometry" />
        </mxCell>
        <mxCell id="rtJpqdKrXWml77eh1tYl-101" style="edgeStyle=orthogonalEdgeStyle;rounded=0;orthogonalLoop=1;jettySize=auto;html=1;" edge="1" parent="1" source="rtJpqdKrXWml77eh1tYl-97" target="rtJpqdKrXWml77eh1tYl-84">
          <mxGeometry relative="1" as="geometry" />
        </mxCell>
        <mxCell id="rtJpqdKrXWml77eh1tYl-97" value="" style="ellipse;whiteSpace=wrap;html=1;aspect=fixed;" vertex="1" parent="1">
          <mxGeometry x="340" y="820" width="20" height="20" as="geometry" />
        </mxCell>
        <mxCell id="rtJpqdKrXWml77eh1tYl-98" value="" style="ellipse;whiteSpace=wrap;html=1;aspect=fixed;" vertex="1" parent="1">
          <mxGeometry x="520" y="930" width="20" height="20" as="geometry" />
        </mxCell>
        <mxCell id="rtJpqdKrXWml77eh1tYl-103" value="メインブランチ" style="text;html=1;strokeColor=none;fillColor=none;align=center;verticalAlign=middle;whiteSpace=wrap;rounded=0;" vertex="1" parent="1">
          <mxGeometry x="14.5" y="928.75" width="111" height="22.5" as="geometry" />
        </mxCell>
        <mxCell id="rtJpqdKrXWml77eh1tYl-104" value="リリースブランチ" style="text;html=1;strokeColor=none;fillColor=none;align=center;verticalAlign=middle;whiteSpace=wrap;rounded=0;" vertex="1" parent="1">
          <mxGeometry x="14.5" y="818.75" width="111" height="22.5" as="geometry" />
        </mxCell>
      </root>
    </mxGraphModel>
  </diagram>
</mxfile>
